<svg width="44" height="45" viewBox="0 0 44 45" fill="none" xmlns="http://www.w3.org/2000/svg">
<path d="M9.07251 23.2665C10.2086 22.1305 12.0631 22.1419 13.2141 23.2929L19.4661 29.5458C20.6171 30.6966 22.4707 30.7081 23.6067 29.5722L29.7786 23.4013C30.9147 22.2654 32.7682 22.2777 33.9192 23.4286L42.2561 31.7646C43.4071 32.9156 43.4185 34.7701 42.2825 35.9062L34.0549 44.1337C32.9189 45.2698 31.0643 45.2583 29.9133 44.1073L23.6614 37.8544C22.5103 36.7035 20.6558 36.692 19.5198 37.828L13.3489 43.9989C12.2128 45.1349 10.3592 45.1225 9.20825 43.9716L0.871337 35.6357C-0.279643 34.4847 -0.291962 32.6301 0.843993 31.4941L9.07251 23.2665Z" fill="white"/>
<path d="M15.1555 2.55558C18.5637 -0.852454 24.0901 -0.851594 27.4983 2.55656L27.6604 2.71867C31.0684 6.12684 31.0684 11.6523 27.6604 15.0605C24.2522 18.4687 18.7258 18.4687 15.3176 15.0605L15.1555 14.8984C11.7473 11.4901 11.7473 5.96378 15.1555 2.55558Z" fill="white"/>
</svg>
