<svg width="32" height="56" viewBox="0 0 32 56" fill="none" xmlns="http://www.w3.org/2000/svg">
<path d="M14.5455 23.5789C16.1521 23.5789 17.4545 24.8985 17.4545 26.5263V35.3684C17.4545 36.9962 18.757 38.3158 20.3636 38.3158H29.0909C30.6976 38.3158 32 39.6354 32 41.2632V53.0526C32 54.6804 30.6976 56 29.0909 56H17.4545C15.8479 56 14.5455 54.6804 14.5455 53.0526V44.2105C14.5455 42.5827 13.243 41.2632 11.6364 41.2632H2.90909C1.30244 41.2632 4.68557e-08 39.9436 0 38.3158V26.5263C1.8742e-07 24.8985 1.30244 23.5789 2.90909 23.5789H14.5455Z" fill="black"/>
<path d="M17.4545 8.95693C17.4545 13.7769 13.5472 17.6842 8.72727 17.6842C3.90733 17.6842 0 13.7769 0 8.95693V8.72728C0 3.90734 3.90733 0 8.72727 0C13.5472 0 17.4545 3.90734 17.4545 8.72728V8.95693Z" fill="#0066FF"/>
</svg>
